<svg viewBox="0 0 600 336" width="100%" role="img" aria-label="PLA win rate versus beach offload throughput" xmlns="http://www.w3.org/2000/svg" style="max-width:100%;height:auto;">
  <text x="60" y="34" font-family="Outfit, sans-serif" font-size="20" font-weight="700" fill="#e2e8f0" text-anchor="start">Logistics binds — PLA win rate vs beach throughput</text>
  <text x="60" y="58" font-family="Inter, sans-serif" font-size="12" font-weight="400" fill="#94a3b8" text-anchor="start">Throttle the follow-on's beach offload and the invasion culminates below the ROC count</text>
  <line x1="66" y1="296.0" x2="566" y2="296.0" stroke="rgba(255,255,255,0.08)" stroke-width="1"/>
  <text x="58" y="300.0" font-family="Inter, sans-serif" font-size="11" font-weight="400" fill="#64748b" text-anchor="end">0%</text>
  <line x1="66" y1="198.0" x2="566" y2="198.0" stroke="rgba(255,255,255,0.08)" stroke-width="1"/>
  <text x="58" y="202.0" font-family="Inter, sans-serif" font-size="11" font-weight="400" fill="#64748b" text-anchor="end">50%</text>
  <line x1="66" y1="100.0" x2="566" y2="100.0" stroke="rgba(255,255,255,0.08)" stroke-width="1"/>
  <text x="58" y="104.0" font-family="Inter, sans-serif" font-size="11" font-weight="400" fill="#64748b" text-anchor="end">100%</text>
  <rect x="66.0" y="100" width="96.5" height="196" fill="rgba(139,92,246,0.10)"/>
  <line x1="66" y1="198.0" x2="566" y2="198.0" stroke="#8b5cf6" stroke-width="1.5" stroke-dasharray="5 4"/>
  <text x="564" y="191.0" font-family="Inter, sans-serif" font-size="10.5" font-weight="600" fill="#8b5cf6" text-anchor="end">coin-flip</text>
  <polyline points="66.0,296.0 105.5,286.2 144.9,227.4 197.6,139.2 276.5,100.0 381.8,100.0 566.0,100.0" fill="none" stroke="#3b82f6" stroke-width="2.5" stroke-linejoin="round" stroke-linecap="round"/>
  <circle cx="66.0" cy="296.0" r="4.5" fill="#60a5fa" stroke="#0a0e17" stroke-width="2"/>
  <line x1="66.0" y1="296" x2="66.0" y2="301" stroke="rgba(255,255,255,0.25)" stroke-width="1"/>
  <text x="66.0" y="315" font-family="Inter, sans-serif" font-size="10" font-weight="400" fill="#94a3b8" text-anchor="middle">600</text>
  <circle cx="105.5" cy="286.2" r="4.5" fill="#60a5fa" stroke="#0a0e17" stroke-width="2"/>
  <line x1="105.5" y1="296" x2="105.5" y2="301" stroke="rgba(255,255,255,0.25)" stroke-width="1"/>
  <text x="105.47368421052632" y="315" font-family="Inter, sans-serif" font-size="10" font-weight="400" fill="#94a3b8" text-anchor="middle">900</text>
  <circle cx="144.9" cy="227.4" r="4.5" fill="#60a5fa" stroke="#0a0e17" stroke-width="2"/>
  <line x1="144.9" y1="296" x2="144.9" y2="301" stroke="rgba(255,255,255,0.25)" stroke-width="1"/>
  <text x="144.94736842105263" y="315" font-family="Inter, sans-serif" font-size="10" font-weight="400" fill="#94a3b8" text-anchor="middle">1200</text>
  <circle cx="197.6" cy="139.2" r="4.5" fill="#60a5fa" stroke="#0a0e17" stroke-width="2"/>
  <line x1="197.6" y1="296" x2="197.6" y2="301" stroke="rgba(255,255,255,0.25)" stroke-width="1"/>
  <text x="197.57894736842104" y="315" font-family="Inter, sans-serif" font-size="10" font-weight="400" fill="#94a3b8" text-anchor="middle">1600</text>
  <circle cx="276.5" cy="100.0" r="4.5" fill="#60a5fa" stroke="#0a0e17" stroke-width="2"/>
  <line x1="276.5" y1="296" x2="276.5" y2="301" stroke="rgba(255,255,255,0.25)" stroke-width="1"/>
  <text x="276.52631578947364" y="315" font-family="Inter, sans-serif" font-size="10" font-weight="400" fill="#94a3b8" text-anchor="middle">2200</text>
  <circle cx="381.8" cy="100.0" r="4.5" fill="#60a5fa" stroke="#0a0e17" stroke-width="2"/>
  <line x1="381.8" y1="296" x2="381.8" y2="301" stroke="rgba(255,255,255,0.25)" stroke-width="1"/>
  <text x="381.7894736842105" y="315" font-family="Inter, sans-serif" font-size="10" font-weight="400" fill="#94a3b8" text-anchor="middle">3000</text>
  <circle cx="566.0" cy="100.0" r="4.5" fill="#60a5fa" stroke="#0a0e17" stroke-width="2"/>
  <line x1="566.0" y1="296" x2="566.0" y2="301" stroke="rgba(255,255,255,0.25)" stroke-width="1"/>
  <text x="566.0" y="315" font-family="Inter, sans-serif" font-size="10" font-weight="400" fill="#94a3b8" text-anchor="middle">4400</text>
  <line x1="162.5" y1="100" x2="162.5" y2="198.0" stroke="#e2e8f0" stroke-width="1.5" stroke-dasharray="2 3"/>
  <text x="168.49122807017545" y="114" font-family="Inter, sans-serif" font-size="11" font-weight="600" fill="#e2e8f0" text-anchor="start">culmination</text>
  <text x="168.49122807017545" y="129" font-family="Inter, sans-serif" font-size="10.5" font-weight="400" fill="#94a3b8" text-anchor="start">≈1330 t/day</text>
  <text x="566.0" y="90.0" font-family="Inter, sans-serif" font-size="10.5" font-weight="400" fill="#64748b" text-anchor="end">baseline 4,400</text>
  <line x1="66" y1="296" x2="566" y2="296" stroke="rgba(255,255,255,0.25)" stroke-width="1.5"/>
  <text x="316.0" y="334" font-family="Inter, sans-serif" font-size="12" font-weight="400" fill="#94a3b8" text-anchor="middle">beach offload throughput (short tons/day)</text>
</svg>
