<svg viewBox="0 0 600 400" width="100%" role="img" aria-label="Monte Carlo victory-margin distribution across 200 seeds" xmlns="http://www.w3.org/2000/svg" style="max-width:100%;height:auto;">
  <text x="60" y="34" font-family="Outfit, sans-serif" font-size="21" font-weight="700" fill="#e2e8f0" text-anchor="start">Victory margin across 200 seeds</text>
  <text x="60" y="58" font-family="Inter, sans-serif" font-size="12.5" font-weight="400" fill="#94a3b8" text-anchor="start">PLA amphibious assault vs full ROC defense · symmetric scripted policy</text>
  <line x1="62" y1="292.0" x2="566" y2="292.0" stroke="rgba(255,255,255,0.08)" stroke-width="1"/>
  <text x="54" y="296.0" font-family="Inter, sans-serif" font-size="11" font-weight="400" fill="#64748b" text-anchor="end">0</text>
  <line x1="62" y1="229.3" x2="566" y2="229.3" stroke="rgba(255,255,255,0.08)" stroke-width="1"/>
  <text x="54" y="233.33333333333334" font-family="Inter, sans-serif" font-size="11" font-weight="400" fill="#64748b" text-anchor="end">30</text>
  <line x1="62" y1="166.7" x2="566" y2="166.7" stroke="rgba(255,255,255,0.08)" stroke-width="1"/>
  <text x="54" y="170.66666666666669" font-family="Inter, sans-serif" font-size="11" font-weight="400" fill="#64748b" text-anchor="end">60</text>
  <line x1="62" y1="104.0" x2="566" y2="104.0" stroke="rgba(255,255,255,0.08)" stroke-width="1"/>
  <text x="54" y="108.0" font-family="Inter, sans-serif" font-size="11" font-weight="400" fill="#64748b" text-anchor="end">90</text>
  <text x="62" y="92" font-family="Inter, sans-serif" font-size="11" font-weight="400" fill="#64748b" text-anchor="start">games (of 200)</text>
  <path d="M123.8 292.0 v-167.3 a4 4 0 0 1 4 -4 h61.1 a4 4 0 0 1 4 4 v167.3 z" fill="#3b82f6"/>
  <rect x="123.8" y="120.7" width="69.1" height="3" rx="1.5" fill="#60a5fa"/>
  <text x="158.3529411764706" y="112.71111111111111" font-family="Inter, sans-serif" font-size="12" font-weight="600" fill="#e2e8f0" text-anchor="middle">82</text>
  <path d="M197.9 292.0 v-98.4 a4 4 0 0 1 4 -4 h61.1 a4 4 0 0 1 4 4 v98.4 z" fill="#3b82f6"/>
  <rect x="197.9" y="189.6" width="69.1" height="3" rx="1.5" fill="#60a5fa"/>
  <text x="232.47058823529412" y="181.64444444444445" font-family="Inter, sans-serif" font-size="12" font-weight="600" fill="#e2e8f0" text-anchor="middle">49</text>
  <path d="M272.0 292.0 v-62.8 a4 4 0 0 1 4 -4 h61.1 a4 4 0 0 1 4 4 v62.8 z" fill="#3b82f6"/>
  <rect x="272.0" y="225.2" width="69.1" height="3" rx="1.5" fill="#60a5fa"/>
  <text x="306.5882352941176" y="217.15555555555557" font-family="Inter, sans-serif" font-size="12" font-weight="600" fill="#e2e8f0" text-anchor="middle">32</text>
  <path d="M346.1 292.0 v-46.1 a4 4 0 0 1 4 -4 h61.1 a4 4 0 0 1 4 4 v46.1 z" fill="#3b82f6"/>
  <rect x="346.1" y="241.9" width="69.1" height="3" rx="1.5" fill="#60a5fa"/>
  <text x="380.70588235294116" y="233.86666666666667" font-family="Inter, sans-serif" font-size="12" font-weight="600" fill="#e2e8f0" text-anchor="middle">24</text>
  <path d="M420.3 292.0 v-8.5 a4 4 0 0 1 4 -4 h61.1 a4 4 0 0 1 4 4 v8.5 z" fill="#3b82f6"/>
  <rect x="420.3" y="279.5" width="69.1" height="3" rx="1.5" fill="#60a5fa"/>
  <text x="454.82352941176475" y="271.46666666666664" font-family="Inter, sans-serif" font-size="12" font-weight="600" fill="#e2e8f0" text-anchor="middle">6</text>
  <path d="M494.4 292.0 v-10.6 a4 4 0 0 1 4 -4 h61.1 a4 4 0 0 1 4 4 v10.6 z" fill="#3b82f6"/>
  <rect x="494.4" y="277.4" width="69.1" height="3" rx="1.5" fill="#60a5fa"/>
  <text x="528.9411764705883" y="269.3777777777778" font-family="Inter, sans-serif" font-size="12" font-weight="600" fill="#e2e8f0" text-anchor="middle">7</text>
  <line x1="62" y1="292" x2="566" y2="292" stroke="rgba(255,255,255,0.25)" stroke-width="1.5"/>
  <line x1="121.3" y1="292" x2="121.3" y2="297" stroke="rgba(255,255,255,0.25)" stroke-width="1"/>
  <text x="121.29411764705883" y="311" font-family="Inter, sans-serif" font-size="11" font-weight="400" fill="#94a3b8" text-anchor="middle">0</text>
  <line x1="195.4" y1="292" x2="195.4" y2="297" stroke="rgba(255,255,255,0.25)" stroke-width="1"/>
  <text x="195.41176470588235" y="311" font-family="Inter, sans-serif" font-size="11" font-weight="400" fill="#94a3b8" text-anchor="middle">+5</text>
  <line x1="269.5" y1="292" x2="269.5" y2="297" stroke="rgba(255,255,255,0.25)" stroke-width="1"/>
  <text x="269.52941176470586" y="311" font-family="Inter, sans-serif" font-size="11" font-weight="400" fill="#94a3b8" text-anchor="middle">+10</text>
  <line x1="343.6" y1="292" x2="343.6" y2="297" stroke="rgba(255,255,255,0.25)" stroke-width="1"/>
  <text x="343.6470588235294" y="311" font-family="Inter, sans-serif" font-size="11" font-weight="400" fill="#94a3b8" text-anchor="middle">+15</text>
  <line x1="417.8" y1="292" x2="417.8" y2="297" stroke="rgba(255,255,255,0.25)" stroke-width="1"/>
  <text x="417.764705882353" y="311" font-family="Inter, sans-serif" font-size="11" font-weight="400" fill="#94a3b8" text-anchor="middle">+20</text>
  <line x1="491.9" y1="292" x2="491.9" y2="297" stroke="rgba(255,255,255,0.25)" stroke-width="1"/>
  <text x="491.88235294117646" y="311" font-family="Inter, sans-serif" font-size="11" font-weight="400" fill="#94a3b8" text-anchor="middle">+25</text>
  <text x="314.0" y="330" font-family="Inter, sans-serif" font-size="12" font-weight="400" fill="#94a3b8" text-anchor="middle">PLA − ROC battalions present at game end  (victory margin)</text>
  <line x1="121.3" y1="106" x2="121.3" y2="292" stroke="#8b5cf6" stroke-width="2" stroke-dasharray="5 4"/>
  <text x="114.29411764705883" y="134" font-family="Inter, sans-serif" font-size="11" font-weight="700" fill="#8b5cf6" text-anchor="end">tie</text>
  <text x="114.29411764705883" y="149" font-family="Inter, sans-serif" font-size="9.5" font-weight="400" fill="#64748b" text-anchor="end">ROC 0/200</text>
  <line x1="239.4" y1="106" x2="239.4" y2="292" stroke="#e2e8f0" stroke-width="1.5" stroke-dasharray="2 3"/>
  <text x="244.43764705882353" y="116" font-family="Inter, sans-serif" font-size="11" font-weight="600" fill="#e2e8f0" text-anchor="start">mean +8.0</text>
  <line x1="60" y1="342" x2="566" y2="342" stroke="rgba(255,255,255,0.08)" stroke-width="1"/>
  <text x="75.0" y="372" font-family="Outfit, sans-serif" font-size="23" font-weight="700" fill="#3b82f6" text-anchor="middle">200 / 200</text>
  <text x="75.0" y="392" font-family="Inter, sans-serif" font-size="11" font-weight="400" fill="#94a3b8" text-anchor="middle">PLA victories</text>
  <text x="225.0" y="372" font-family="Outfit, sans-serif" font-size="23" font-weight="700" fill="#e2e8f0" text-anchor="middle">+6</text>
  <text x="225.0" y="392" font-family="Inter, sans-serif" font-size="11" font-weight="400" fill="#94a3b8" text-anchor="middle">median margin</text>
  <text x="375.0" y="372" font-family="Outfit, sans-serif" font-size="23" font-weight="700" fill="#e2e8f0" text-anchor="middle">+1</text>
  <text x="375.0" y="392" font-family="Inter, sans-serif" font-size="11" font-weight="400" fill="#94a3b8" text-anchor="middle">thinnest win</text>
  <text x="525.0" y="372" font-family="Outfit, sans-serif" font-size="23" font-weight="700" fill="#e2e8f0" text-anchor="middle">11–23</text>
  <text x="525.0" y="392" font-family="Inter, sans-serif" font-size="11" font-weight="400" fill="#94a3b8" text-anchor="middle">turns to decision</text>
</svg>
