<svg viewBox="0 0 678 476" width="100%" role="img" aria-label="Off-island interdiction × beach throttle — where the crossing flips" xmlns="http://www.w3.org/2000/svg" style="max-width:100%;height:auto;">
  <text x="54" y="34" font-family="Outfit, sans-serif" font-size="19" font-weight="700" fill="#e2e8f0" text-anchor="start">Off-island interdiction × beach throttle — where the crossing flips</text>
  <text x="54" y="56" font-family="Inter, sans-serif" font-size="12" font-weight="400" fill="#94a3b8" text-anchor="start">PLA win % over 20 seeds · scenario_default · selfplay_default · fixed engine</text>
  <text x="200.0" y="70" font-family="Outfit, sans-serif" font-size="13.5" font-weight="700" fill="#e2e8f0" text-anchor="middle">Taipei port intact</text>
  <rect x="61.5" y="85.5" width="37.0" height="37.0" rx="3" fill="#4f9dff"/>
  <text x="80.0" y="108.0" font-family="Inter, sans-serif" font-size="12" font-weight="700" fill="#e2e8f0" text-anchor="middle">100</text>
  <rect x="101.5" y="85.5" width="37.0" height="37.0" rx="3" fill="#5591dc"/>
  <text x="120.0" y="108.0" font-family="Inter, sans-serif" font-size="12" font-weight="700" fill="#e2e8f0" text-anchor="middle">85</text>
  <rect x="141.5" y="85.5" width="37.0" height="37.0" rx="3" fill="#927181"/>
  <text x="160.0" y="108.0" font-family="Inter, sans-serif" font-size="12" font-weight="700" fill="#e2e8f0" text-anchor="middle">35</text>
  <rect x="181.5" y="85.5" width="37.0" height="37.0" rx="3" fill="#d06e75"/>
  <text x="200.0" y="108.0" font-family="Inter, sans-serif" font-size="12" font-weight="700" fill="#e2e8f0" text-anchor="middle">15</text>
  <rect x="221.5" y="85.5" width="37.0" height="37.0" rx="3" fill="#e06d71"/>
  <text x="240.0" y="108.0" font-family="Inter, sans-serif" font-size="12" font-weight="700" fill="#e2e8f0" text-anchor="middle">10</text>
  <rect x="261.5" y="85.5" width="37.0" height="37.0" rx="3" fill="#f06c6e"/>
  <text x="280.0" y="108.0" font-family="Inter, sans-serif" font-size="12" font-weight="700" fill="#e2e8f0" text-anchor="middle">5</text>
  <rect x="301.5" y="85.5" width="37.0" height="37.0" rx="3" fill="#ff6b6b"/>
  <text x="320.0" y="108.0" font-family="Inter, sans-serif" font-size="12" font-weight="700" fill="#e2e8f0" text-anchor="middle">0</text>
  <rect x="61.5" y="125.5" width="37.0" height="37.0" rx="3" fill="#4f9dff"/>
  <text x="80.0" y="148.0" font-family="Inter, sans-serif" font-size="12" font-weight="700" fill="#e2e8f0" text-anchor="middle">100</text>
  <rect x="101.5" y="125.5" width="37.0" height="37.0" rx="3" fill="#5199f3"/>
  <text x="120.0" y="148.0" font-family="Inter, sans-serif" font-size="12" font-weight="700" fill="#e2e8f0" text-anchor="middle">95</text>
  <rect x="141.5" y="125.5" width="37.0" height="37.0" rx="3" fill="#64748b"/>
  <text x="160.0" y="148.0" font-family="Inter, sans-serif" font-size="12" font-weight="700" fill="#e2e8f0" text-anchor="middle">50</text>
  <rect x="181.5" y="125.5" width="37.0" height="37.0" rx="3" fill="#a2707e"/>
  <text x="200.0" y="148.0" font-family="Inter, sans-serif" font-size="12" font-weight="700" fill="#e2e8f0" text-anchor="middle">30</text>
  <rect x="221.5" y="125.5" width="37.0" height="37.0" rx="3" fill="#f06c6e"/>
  <text x="240.0" y="148.0" font-family="Inter, sans-serif" font-size="12" font-weight="700" fill="#e2e8f0" text-anchor="middle">5</text>
  <rect x="261.5" y="125.5" width="37.0" height="37.0" rx="3" fill="#d06e75"/>
  <text x="280.0" y="148.0" font-family="Inter, sans-serif" font-size="12" font-weight="700" fill="#e2e8f0" text-anchor="middle">15</text>
  <rect x="301.5" y="125.5" width="37.0" height="37.0" rx="3" fill="#f06c6e"/>
  <text x="320.0" y="148.0" font-family="Inter, sans-serif" font-size="12" font-weight="700" fill="#e2e8f0" text-anchor="middle">5</text>
  <rect x="61.5" y="165.5" width="37.0" height="37.0" rx="3" fill="#5e80ae"/>
  <text x="80.0" y="188.0" font-family="Inter, sans-serif" font-size="12" font-weight="700" fill="#e2e8f0" text-anchor="middle">65</text>
  <rect x="101.5" y="165.5" width="37.0" height="37.0" rx="3" fill="#747388"/>
  <text x="120.0" y="188.0" font-family="Inter, sans-serif" font-size="12" font-weight="700" fill="#e2e8f0" text-anchor="middle">45</text>
  <rect x="141.5" y="165.5" width="37.0" height="37.0" rx="3" fill="#a2707e"/>
  <text x="160.0" y="188.0" font-family="Inter, sans-serif" font-size="12" font-weight="700" fill="#e2e8f0" text-anchor="middle">30</text>
  <rect x="181.5" y="165.5" width="37.0" height="37.0" rx="3" fill="#d06e75"/>
  <text x="200.0" y="188.0" font-family="Inter, sans-serif" font-size="12" font-weight="700" fill="#e2e8f0" text-anchor="middle">15</text>
  <rect x="221.5" y="165.5" width="37.0" height="37.0" rx="3" fill="#d06e75"/>
  <text x="240.0" y="188.0" font-family="Inter, sans-serif" font-size="12" font-weight="700" fill="#e2e8f0" text-anchor="middle">15</text>
  <rect x="261.5" y="165.5" width="37.0" height="37.0" rx="3" fill="#e06d71"/>
  <text x="280.0" y="188.0" font-family="Inter, sans-serif" font-size="12" font-weight="700" fill="#e2e8f0" text-anchor="middle">10</text>
  <rect x="301.5" y="165.5" width="37.0" height="37.0" rx="3" fill="#ff6b6b"/>
  <text x="320.0" y="188.0" font-family="Inter, sans-serif" font-size="12" font-weight="700" fill="#e2e8f0" text-anchor="middle">0</text>
  <rect x="61.5" y="205.5" width="37.0" height="37.0" rx="3" fill="#ff6b6b"/>
  <text x="80.0" y="228.0" font-family="Inter, sans-serif" font-size="12" font-weight="700" fill="#e2e8f0" text-anchor="middle">0</text>
  <rect x="101.5" y="205.5" width="37.0" height="37.0" rx="3" fill="#f06c6e"/>
  <text x="120.0" y="228.0" font-family="Inter, sans-serif" font-size="12" font-weight="700" fill="#e2e8f0" text-anchor="middle">5</text>
  <rect x="141.5" y="205.5" width="37.0" height="37.0" rx="3" fill="#ff6b6b"/>
  <text x="160.0" y="228.0" font-family="Inter, sans-serif" font-size="12" font-weight="700" fill="#e2e8f0" text-anchor="middle">0</text>
  <rect x="181.5" y="205.5" width="37.0" height="37.0" rx="3" fill="#ff6b6b"/>
  <text x="200.0" y="228.0" font-family="Inter, sans-serif" font-size="12" font-weight="700" fill="#e2e8f0" text-anchor="middle">0</text>
  <rect x="221.5" y="205.5" width="37.0" height="37.0" rx="3" fill="#ff6b6b"/>
  <text x="240.0" y="228.0" font-family="Inter, sans-serif" font-size="12" font-weight="700" fill="#e2e8f0" text-anchor="middle">0</text>
  <rect x="261.5" y="205.5" width="37.0" height="37.0" rx="3" fill="#ff6b6b"/>
  <text x="280.0" y="228.0" font-family="Inter, sans-serif" font-size="12" font-weight="700" fill="#e2e8f0" text-anchor="middle">0</text>
  <rect x="301.5" y="205.5" width="37.0" height="37.0" rx="3" fill="#ff6b6b"/>
  <text x="320.0" y="228.0" font-family="Inter, sans-serif" font-size="12" font-weight="700" fill="#e2e8f0" text-anchor="middle">0</text>
  <rect x="61.5" y="245.5" width="37.0" height="37.0" rx="3" fill="#ff6b6b"/>
  <text x="80.0" y="268.0" font-family="Inter, sans-serif" font-size="12" font-weight="700" fill="#e2e8f0" text-anchor="middle">0</text>
  <rect x="101.5" y="245.5" width="37.0" height="37.0" rx="3" fill="#ff6b6b"/>
  <text x="120.0" y="268.0" font-family="Inter, sans-serif" font-size="12" font-weight="700" fill="#e2e8f0" text-anchor="middle">0</text>
  <rect x="141.5" y="245.5" width="37.0" height="37.0" rx="3" fill="#ff6b6b"/>
  <text x="160.0" y="268.0" font-family="Inter, sans-serif" font-size="12" font-weight="700" fill="#e2e8f0" text-anchor="middle">0</text>
  <rect x="181.5" y="245.5" width="37.0" height="37.0" rx="3" fill="#ff6b6b"/>
  <text x="200.0" y="268.0" font-family="Inter, sans-serif" font-size="12" font-weight="700" fill="#e2e8f0" text-anchor="middle">0</text>
  <rect x="221.5" y="245.5" width="37.0" height="37.0" rx="3" fill="#ff6b6b"/>
  <text x="240.0" y="268.0" font-family="Inter, sans-serif" font-size="12" font-weight="700" fill="#e2e8f0" text-anchor="middle">0</text>
  <rect x="261.5" y="245.5" width="37.0" height="37.0" rx="3" fill="#ff6b6b"/>
  <text x="280.0" y="268.0" font-family="Inter, sans-serif" font-size="12" font-weight="700" fill="#e2e8f0" text-anchor="middle">0</text>
  <rect x="301.5" y="245.5" width="37.0" height="37.0" rx="3" fill="#ff6b6b"/>
  <text x="320.0" y="268.0" font-family="Inter, sans-serif" font-size="12" font-weight="700" fill="#e2e8f0" text-anchor="middle">0</text>
  <rect x="61.5" y="285.5" width="37.0" height="37.0" rx="3" fill="#ff6b6b"/>
  <text x="80.0" y="308.0" font-family="Inter, sans-serif" font-size="12" font-weight="700" fill="#e2e8f0" text-anchor="middle">0</text>
  <rect x="101.5" y="285.5" width="37.0" height="37.0" rx="3" fill="#ff6b6b"/>
  <text x="120.0" y="308.0" font-family="Inter, sans-serif" font-size="12" font-weight="700" fill="#e2e8f0" text-anchor="middle">0</text>
  <rect x="141.5" y="285.5" width="37.0" height="37.0" rx="3" fill="#ff6b6b"/>
  <text x="160.0" y="308.0" font-family="Inter, sans-serif" font-size="12" font-weight="700" fill="#e2e8f0" text-anchor="middle">0</text>
  <rect x="181.5" y="285.5" width="37.0" height="37.0" rx="3" fill="#ff6b6b"/>
  <text x="200.0" y="308.0" font-family="Inter, sans-serif" font-size="12" font-weight="700" fill="#e2e8f0" text-anchor="middle">0</text>
  <rect x="221.5" y="285.5" width="37.0" height="37.0" rx="3" fill="#ff6b6b"/>
  <text x="240.0" y="308.0" font-family="Inter, sans-serif" font-size="12" font-weight="700" fill="#e2e8f0" text-anchor="middle">0</text>
  <rect x="261.5" y="285.5" width="37.0" height="37.0" rx="3" fill="#ff6b6b"/>
  <text x="280.0" y="308.0" font-family="Inter, sans-serif" font-size="12" font-weight="700" fill="#e2e8f0" text-anchor="middle">0</text>
  <rect x="301.5" y="285.5" width="37.0" height="37.0" rx="3" fill="#ff6b6b"/>
  <text x="320.0" y="308.0" font-family="Inter, sans-serif" font-size="12" font-weight="700" fill="#e2e8f0" text-anchor="middle">0</text>
  <rect x="61.5" y="325.5" width="37.0" height="37.0" rx="3" fill="#ff6b6b"/>
  <text x="80.0" y="348.0" font-family="Inter, sans-serif" font-size="12" font-weight="700" fill="#e2e8f0" text-anchor="middle">0</text>
  <rect x="101.5" y="325.5" width="37.0" height="37.0" rx="3" fill="#ff6b6b"/>
  <text x="120.0" y="348.0" font-family="Inter, sans-serif" font-size="12" font-weight="700" fill="#e2e8f0" text-anchor="middle">0</text>
  <rect x="141.5" y="325.5" width="37.0" height="37.0" rx="3" fill="#ff6b6b"/>
  <text x="160.0" y="348.0" font-family="Inter, sans-serif" font-size="12" font-weight="700" fill="#e2e8f0" text-anchor="middle">0</text>
  <rect x="181.5" y="325.5" width="37.0" height="37.0" rx="3" fill="#ff6b6b"/>
  <text x="200.0" y="348.0" font-family="Inter, sans-serif" font-size="12" font-weight="700" fill="#e2e8f0" text-anchor="middle">0</text>
  <rect x="221.5" y="325.5" width="37.0" height="37.0" rx="3" fill="#ff6b6b"/>
  <text x="240.0" y="348.0" font-family="Inter, sans-serif" font-size="12" font-weight="700" fill="#e2e8f0" text-anchor="middle">0</text>
  <rect x="261.5" y="325.5" width="37.0" height="37.0" rx="3" fill="#ff6b6b"/>
  <text x="280.0" y="348.0" font-family="Inter, sans-serif" font-size="12" font-weight="700" fill="#e2e8f0" text-anchor="middle">0</text>
  <rect x="301.5" y="325.5" width="37.0" height="37.0" rx="3" fill="#ff6b6b"/>
  <text x="320.0" y="348.0" font-family="Inter, sans-serif" font-size="12" font-weight="700" fill="#e2e8f0" text-anchor="middle">0</text>
  <text x="80.0" y="382" font-family="Inter, sans-serif" font-size="10.5" font-weight="400" fill="#94a3b8" text-anchor="middle">0</text>
  <text x="120.0" y="382" font-family="Inter, sans-serif" font-size="10.5" font-weight="400" fill="#94a3b8" text-anchor="middle">8</text>
  <text x="160.0" y="382" font-family="Inter, sans-serif" font-size="10.5" font-weight="400" fill="#94a3b8" text-anchor="middle">16</text>
  <text x="200.0" y="382" font-family="Inter, sans-serif" font-size="10.5" font-weight="400" fill="#94a3b8" text-anchor="middle">24</text>
  <text x="240.0" y="382" font-family="Inter, sans-serif" font-size="10.5" font-weight="400" fill="#94a3b8" text-anchor="middle">32</text>
  <text x="280.0" y="382" font-family="Inter, sans-serif" font-size="10.5" font-weight="400" fill="#94a3b8" text-anchor="middle">48</text>
  <text x="320.0" y="382" font-family="Inter, sans-serif" font-size="10.5" font-weight="400" fill="#94a3b8" text-anchor="middle">64</text>
  <text x="200.0" y="402" font-family="Inter, sans-serif" font-size="11.5" font-weight="600" fill="#94a3b8" text-anchor="middle">off-island sub-strikes / turn</text>
  <text x="524.0" y="70" font-family="Outfit, sans-serif" font-size="13.5" font-weight="700" fill="#e2e8f0" text-anchor="middle">port neutralized</text>
  <rect x="385.5" y="85.5" width="37.0" height="37.0" rx="3" fill="#4f9dff"/>
  <text x="404.0" y="108.0" font-family="Inter, sans-serif" font-size="12" font-weight="700" fill="#e2e8f0" text-anchor="middle">100</text>
  <rect x="425.5" y="85.5" width="37.0" height="37.0" rx="3" fill="#4f9dff"/>
  <text x="444.0" y="108.0" font-family="Inter, sans-serif" font-size="12" font-weight="700" fill="#e2e8f0" text-anchor="middle">100</text>
  <rect x="465.5" y="85.5" width="37.0" height="37.0" rx="3" fill="#607ca2"/>
  <text x="484.0" y="108.0" font-family="Inter, sans-serif" font-size="12" font-weight="700" fill="#e2e8f0" text-anchor="middle">60</text>
  <rect x="505.5" y="85.5" width="37.0" height="37.0" rx="3" fill="#747388"/>
  <text x="524.0" y="108.0" font-family="Inter, sans-serif" font-size="12" font-weight="700" fill="#e2e8f0" text-anchor="middle">45</text>
  <rect x="545.5" y="85.5" width="37.0" height="37.0" rx="3" fill="#d06e75"/>
  <text x="564.0" y="108.0" font-family="Inter, sans-serif" font-size="12" font-weight="700" fill="#e2e8f0" text-anchor="middle">15</text>
  <rect x="585.5" y="85.5" width="37.0" height="37.0" rx="3" fill="#c16f78"/>
  <text x="604.0" y="108.0" font-family="Inter, sans-serif" font-size="12" font-weight="700" fill="#e2e8f0" text-anchor="middle">20</text>
  <rect x="625.5" y="85.5" width="37.0" height="37.0" rx="3" fill="#e06d71"/>
  <text x="644.0" y="108.0" font-family="Inter, sans-serif" font-size="12" font-weight="700" fill="#e2e8f0" text-anchor="middle">10</text>
  <rect x="385.5" y="125.5" width="37.0" height="37.0" rx="3" fill="#4f9dff"/>
  <text x="404.0" y="148.0" font-family="Inter, sans-serif" font-size="12" font-weight="700" fill="#e2e8f0" text-anchor="middle">100</text>
  <rect x="425.5" y="125.5" width="37.0" height="37.0" rx="3" fill="#4f9dff"/>
  <text x="444.0" y="148.0" font-family="Inter, sans-serif" font-size="12" font-weight="700" fill="#e2e8f0" text-anchor="middle">100</text>
  <rect x="465.5" y="125.5" width="37.0" height="37.0" rx="3" fill="#5a88c5"/>
  <text x="484.0" y="148.0" font-family="Inter, sans-serif" font-size="12" font-weight="700" fill="#e2e8f0" text-anchor="middle">75</text>
  <rect x="505.5" y="125.5" width="37.0" height="37.0" rx="3" fill="#747388"/>
  <text x="524.0" y="148.0" font-family="Inter, sans-serif" font-size="12" font-weight="700" fill="#e2e8f0" text-anchor="middle">45</text>
  <rect x="545.5" y="125.5" width="37.0" height="37.0" rx="3" fill="#837285"/>
  <text x="564.0" y="148.0" font-family="Inter, sans-serif" font-size="12" font-weight="700" fill="#e2e8f0" text-anchor="middle">40</text>
  <rect x="585.5" y="125.5" width="37.0" height="37.0" rx="3" fill="#927181"/>
  <text x="604.0" y="148.0" font-family="Inter, sans-serif" font-size="12" font-weight="700" fill="#e2e8f0" text-anchor="middle">35</text>
  <rect x="625.5" y="125.5" width="37.0" height="37.0" rx="3" fill="#c16f78"/>
  <text x="644.0" y="148.0" font-family="Inter, sans-serif" font-size="12" font-weight="700" fill="#e2e8f0" text-anchor="middle">20</text>
  <rect x="385.5" y="165.5" width="37.0" height="37.0" rx="3" fill="#578dd1"/>
  <text x="404.0" y="188.0" font-family="Inter, sans-serif" font-size="12" font-weight="700" fill="#e2e8f0" text-anchor="middle">80</text>
  <rect x="425.5" y="165.5" width="37.0" height="37.0" rx="3" fill="#747388"/>
  <text x="444.0" y="188.0" font-family="Inter, sans-serif" font-size="12" font-weight="700" fill="#e2e8f0" text-anchor="middle">45</text>
  <rect x="465.5" y="165.5" width="37.0" height="37.0" rx="3" fill="#837285"/>
  <text x="484.0" y="188.0" font-family="Inter, sans-serif" font-size="12" font-weight="700" fill="#e2e8f0" text-anchor="middle">40</text>
  <rect x="505.5" y="165.5" width="37.0" height="37.0" rx="3" fill="#b2707b"/>
  <text x="524.0" y="188.0" font-family="Inter, sans-serif" font-size="12" font-weight="700" fill="#e2e8f0" text-anchor="middle">25</text>
  <rect x="545.5" y="165.5" width="37.0" height="37.0" rx="3" fill="#e06d71"/>
  <text x="564.0" y="188.0" font-family="Inter, sans-serif" font-size="12" font-weight="700" fill="#e2e8f0" text-anchor="middle">10</text>
  <rect x="585.5" y="165.5" width="37.0" height="37.0" rx="3" fill="#d06e75"/>
  <text x="604.0" y="188.0" font-family="Inter, sans-serif" font-size="12" font-weight="700" fill="#e2e8f0" text-anchor="middle">15</text>
  <rect x="625.5" y="165.5" width="37.0" height="37.0" rx="3" fill="#f06c6e"/>
  <text x="644.0" y="188.0" font-family="Inter, sans-serif" font-size="12" font-weight="700" fill="#e2e8f0" text-anchor="middle">5</text>
  <rect x="385.5" y="205.5" width="37.0" height="37.0" rx="3" fill="#ff6b6b"/>
  <text x="404.0" y="228.0" font-family="Inter, sans-serif" font-size="12" font-weight="700" fill="#e2e8f0" text-anchor="middle">0</text>
  <rect x="425.5" y="205.5" width="37.0" height="37.0" rx="3" fill="#ff6b6b"/>
  <text x="444.0" y="228.0" font-family="Inter, sans-serif" font-size="12" font-weight="700" fill="#e2e8f0" text-anchor="middle">0</text>
  <rect x="465.5" y="205.5" width="37.0" height="37.0" rx="3" fill="#f06c6e"/>
  <text x="484.0" y="228.0" font-family="Inter, sans-serif" font-size="12" font-weight="700" fill="#e2e8f0" text-anchor="middle">5</text>
  <rect x="505.5" y="205.5" width="37.0" height="37.0" rx="3" fill="#ff6b6b"/>
  <text x="524.0" y="228.0" font-family="Inter, sans-serif" font-size="12" font-weight="700" fill="#e2e8f0" text-anchor="middle">0</text>
  <rect x="545.5" y="205.5" width="37.0" height="37.0" rx="3" fill="#ff6b6b"/>
  <text x="564.0" y="228.0" font-family="Inter, sans-serif" font-size="12" font-weight="700" fill="#e2e8f0" text-anchor="middle">0</text>
  <rect x="585.5" y="205.5" width="37.0" height="37.0" rx="3" fill="#ff6b6b"/>
  <text x="604.0" y="228.0" font-family="Inter, sans-serif" font-size="12" font-weight="700" fill="#e2e8f0" text-anchor="middle">0</text>
  <rect x="625.5" y="205.5" width="37.0" height="37.0" rx="3" fill="#ff6b6b"/>
  <text x="644.0" y="228.0" font-family="Inter, sans-serif" font-size="12" font-weight="700" fill="#e2e8f0" text-anchor="middle">0</text>
  <rect x="385.5" y="245.5" width="37.0" height="37.0" rx="3" fill="#ff6b6b"/>
  <text x="404.0" y="268.0" font-family="Inter, sans-serif" font-size="12" font-weight="700" fill="#e2e8f0" text-anchor="middle">0</text>
  <rect x="425.5" y="245.5" width="37.0" height="37.0" rx="3" fill="#ff6b6b"/>
  <text x="444.0" y="268.0" font-family="Inter, sans-serif" font-size="12" font-weight="700" fill="#e2e8f0" text-anchor="middle">0</text>
  <rect x="465.5" y="245.5" width="37.0" height="37.0" rx="3" fill="#ff6b6b"/>
  <text x="484.0" y="268.0" font-family="Inter, sans-serif" font-size="12" font-weight="700" fill="#e2e8f0" text-anchor="middle">0</text>
  <rect x="505.5" y="245.5" width="37.0" height="37.0" rx="3" fill="#ff6b6b"/>
  <text x="524.0" y="268.0" font-family="Inter, sans-serif" font-size="12" font-weight="700" fill="#e2e8f0" text-anchor="middle">0</text>
  <rect x="545.5" y="245.5" width="37.0" height="37.0" rx="3" fill="#ff6b6b"/>
  <text x="564.0" y="268.0" font-family="Inter, sans-serif" font-size="12" font-weight="700" fill="#e2e8f0" text-anchor="middle">0</text>
  <rect x="585.5" y="245.5" width="37.0" height="37.0" rx="3" fill="#ff6b6b"/>
  <text x="604.0" y="268.0" font-family="Inter, sans-serif" font-size="12" font-weight="700" fill="#e2e8f0" text-anchor="middle">0</text>
  <rect x="625.5" y="245.5" width="37.0" height="37.0" rx="3" fill="#ff6b6b"/>
  <text x="644.0" y="268.0" font-family="Inter, sans-serif" font-size="12" font-weight="700" fill="#e2e8f0" text-anchor="middle">0</text>
  <rect x="385.5" y="285.5" width="37.0" height="37.0" rx="3" fill="#ff6b6b"/>
  <text x="404.0" y="308.0" font-family="Inter, sans-serif" font-size="12" font-weight="700" fill="#e2e8f0" text-anchor="middle">0</text>
  <rect x="425.5" y="285.5" width="37.0" height="37.0" rx="3" fill="#ff6b6b"/>
  <text x="444.0" y="308.0" font-family="Inter, sans-serif" font-size="12" font-weight="700" fill="#e2e8f0" text-anchor="middle">0</text>
  <rect x="465.5" y="285.5" width="37.0" height="37.0" rx="3" fill="#ff6b6b"/>
  <text x="484.0" y="308.0" font-family="Inter, sans-serif" font-size="12" font-weight="700" fill="#e2e8f0" text-anchor="middle">0</text>
  <rect x="505.5" y="285.5" width="37.0" height="37.0" rx="3" fill="#ff6b6b"/>
  <text x="524.0" y="308.0" font-family="Inter, sans-serif" font-size="12" font-weight="700" fill="#e2e8f0" text-anchor="middle">0</text>
  <rect x="545.5" y="285.5" width="37.0" height="37.0" rx="3" fill="#ff6b6b"/>
  <text x="564.0" y="308.0" font-family="Inter, sans-serif" font-size="12" font-weight="700" fill="#e2e8f0" text-anchor="middle">0</text>
  <rect x="585.5" y="285.5" width="37.0" height="37.0" rx="3" fill="#ff6b6b"/>
  <text x="604.0" y="308.0" font-family="Inter, sans-serif" font-size="12" font-weight="700" fill="#e2e8f0" text-anchor="middle">0</text>
  <rect x="625.5" y="285.5" width="37.0" height="37.0" rx="3" fill="#ff6b6b"/>
  <text x="644.0" y="308.0" font-family="Inter, sans-serif" font-size="12" font-weight="700" fill="#e2e8f0" text-anchor="middle">0</text>
  <rect x="385.5" y="325.5" width="37.0" height="37.0" rx="3" fill="#ff6b6b"/>
  <text x="404.0" y="348.0" font-family="Inter, sans-serif" font-size="12" font-weight="700" fill="#e2e8f0" text-anchor="middle">0</text>
  <rect x="425.5" y="325.5" width="37.0" height="37.0" rx="3" fill="#ff6b6b"/>
  <text x="444.0" y="348.0" font-family="Inter, sans-serif" font-size="12" font-weight="700" fill="#e2e8f0" text-anchor="middle">0</text>
  <rect x="465.5" y="325.5" width="37.0" height="37.0" rx="3" fill="#ff6b6b"/>
  <text x="484.0" y="348.0" font-family="Inter, sans-serif" font-size="12" font-weight="700" fill="#e2e8f0" text-anchor="middle">0</text>
  <rect x="505.5" y="325.5" width="37.0" height="37.0" rx="3" fill="#ff6b6b"/>
  <text x="524.0" y="348.0" font-family="Inter, sans-serif" font-size="12" font-weight="700" fill="#e2e8f0" text-anchor="middle">0</text>
  <rect x="545.5" y="325.5" width="37.0" height="37.0" rx="3" fill="#ff6b6b"/>
  <text x="564.0" y="348.0" font-family="Inter, sans-serif" font-size="12" font-weight="700" fill="#e2e8f0" text-anchor="middle">0</text>
  <rect x="585.5" y="325.5" width="37.0" height="37.0" rx="3" fill="#ff6b6b"/>
  <text x="604.0" y="348.0" font-family="Inter, sans-serif" font-size="12" font-weight="700" fill="#e2e8f0" text-anchor="middle">0</text>
  <rect x="625.5" y="325.5" width="37.0" height="37.0" rx="3" fill="#ff6b6b"/>
  <text x="644.0" y="348.0" font-family="Inter, sans-serif" font-size="12" font-weight="700" fill="#e2e8f0" text-anchor="middle">0</text>
  <text x="404.0" y="382" font-family="Inter, sans-serif" font-size="10.5" font-weight="400" fill="#94a3b8" text-anchor="middle">0</text>
  <text x="444.0" y="382" font-family="Inter, sans-serif" font-size="10.5" font-weight="400" fill="#94a3b8" text-anchor="middle">8</text>
  <text x="484.0" y="382" font-family="Inter, sans-serif" font-size="10.5" font-weight="400" fill="#94a3b8" text-anchor="middle">16</text>
  <text x="524.0" y="382" font-family="Inter, sans-serif" font-size="10.5" font-weight="400" fill="#94a3b8" text-anchor="middle">24</text>
  <text x="564.0" y="382" font-family="Inter, sans-serif" font-size="10.5" font-weight="400" fill="#94a3b8" text-anchor="middle">32</text>
  <text x="604.0" y="382" font-family="Inter, sans-serif" font-size="10.5" font-weight="400" fill="#94a3b8" text-anchor="middle">48</text>
  <text x="644.0" y="382" font-family="Inter, sans-serif" font-size="10.5" font-weight="400" fill="#94a3b8" text-anchor="middle">64</text>
  <text x="524.0" y="402" font-family="Inter, sans-serif" font-size="11.5" font-weight="600" fill="#94a3b8" text-anchor="middle">off-island sub-strikes / turn</text>
  <text x="54" y="108.0" font-family="Inter, sans-serif" font-size="10.5" font-weight="400" fill="#94a3b8" text-anchor="end">4,400</text>
  <text x="54" y="148.0" font-family="Inter, sans-serif" font-size="10.5" font-weight="400" fill="#94a3b8" text-anchor="end">3,000</text>
  <text x="54" y="188.0" font-family="Inter, sans-serif" font-size="10.5" font-weight="400" fill="#94a3b8" text-anchor="end">2,200</text>
  <text x="54" y="228.0" font-family="Inter, sans-serif" font-size="10.5" font-weight="400" fill="#94a3b8" text-anchor="end">1,600</text>
  <text x="54" y="268.0" font-family="Inter, sans-serif" font-size="10.5" font-weight="400" fill="#94a3b8" text-anchor="end">1,200</text>
  <text x="54" y="308.0" font-family="Inter, sans-serif" font-size="10.5" font-weight="400" fill="#94a3b8" text-anchor="end">900</text>
  <text x="54" y="348.0" font-family="Inter, sans-serif" font-size="10.5" font-weight="400" fill="#94a3b8" text-anchor="end">600</text>
  <text x="14" y="224.0" font-family="Inter, sans-serif" font-size="11.5" font-weight="600" fill="#94a3b8" text-anchor="middle" transform="rotate(-90 14 224.0)">beach offload (short tons/day)</text>
  <rect x="60.0" y="422" width="15.7" height="12" fill="#ff6b6b"/>
  <rect x="75.1" y="422" width="15.7" height="12" fill="#f76b6d"/>
  <rect x="90.2" y="422" width="15.7" height="12" fill="#ef6c6e"/>
  <rect x="105.3" y="422" width="15.7" height="12" fill="#e76c70"/>
  <rect x="120.4" y="422" width="15.7" height="12" fill="#df6d72"/>
  <rect x="135.5" y="422" width="15.7" height="12" fill="#d76d73"/>
  <rect x="150.6" y="422" width="15.7" height="12" fill="#cf6e75"/>
  <rect x="165.7" y="422" width="15.7" height="12" fill="#c76e76"/>
  <rect x="180.8" y="422" width="15.7" height="12" fill="#bf6f78"/>
  <rect x="195.9" y="422" width="15.7" height="12" fill="#b76f7a"/>
  <rect x="211.0" y="422" width="15.7" height="12" fill="#b0707b"/>
  <rect x="226.1" y="422" width="15.7" height="12" fill="#a8707d"/>
  <rect x="241.2" y="422" width="15.7" height="12" fill="#a0717f"/>
  <rect x="256.3" y="422" width="15.7" height="12" fill="#987180"/>
  <rect x="271.4" y="422" width="15.7" height="12" fill="#907182"/>
  <rect x="286.5" y="422" width="15.7" height="12" fill="#887284"/>
  <rect x="301.6" y="422" width="15.7" height="12" fill="#807285"/>
  <rect x="316.7" y="422" width="15.7" height="12" fill="#787387"/>
  <rect x="331.8" y="422" width="15.7" height="12" fill="#707389"/>
  <rect x="346.9" y="422" width="15.7" height="12" fill="#68748a"/>
  <rect x="362.0" y="422" width="15.7" height="12" fill="#63758e"/>
  <rect x="377.1" y="422" width="15.7" height="12" fill="#627794"/>
  <rect x="392.2" y="422" width="15.7" height="12" fill="#61799a"/>
  <rect x="407.3" y="422" width="15.7" height="12" fill="#607ba0"/>
  <rect x="422.4" y="422" width="15.7" height="12" fill="#5f7da6"/>
  <rect x="437.5" y="422" width="15.7" height="12" fill="#5e80ac"/>
  <rect x="452.6" y="422" width="15.7" height="12" fill="#5d82b2"/>
  <rect x="467.7" y="422" width="15.7" height="12" fill="#5c84b8"/>
  <rect x="482.8" y="422" width="15.7" height="12" fill="#5b86be"/>
  <rect x="497.9" y="422" width="15.7" height="12" fill="#5a88c4"/>
  <rect x="513.0" y="422" width="15.7" height="12" fill="#598ac9"/>
  <rect x="528.1" y="422" width="15.7" height="12" fill="#588ccf"/>
  <rect x="543.2" y="422" width="15.7" height="12" fill="#578ed5"/>
  <rect x="558.3" y="422" width="15.7" height="12" fill="#5590db"/>
  <rect x="573.4" y="422" width="15.7" height="12" fill="#5492e1"/>
  <rect x="588.5" y="422" width="15.7" height="12" fill="#5395e7"/>
  <rect x="603.6" y="422" width="15.7" height="12" fill="#5297ed"/>
  <rect x="618.7" y="422" width="15.7" height="12" fill="#5199f3"/>
  <rect x="633.8" y="422" width="15.7" height="12" fill="#509bf9"/>
  <rect x="648.9" y="422" width="15.7" height="12" fill="#4f9dff"/>
  <text x="60" y="452" font-family="Inter, sans-serif" font-size="10.5" font-weight="600" fill="(255, 107, 107)" text-anchor="start">ROC holds (0%)</text>
  <text x="362.0" y="452" font-family="Inter, sans-serif" font-size="10.5" font-weight="600" fill="#94a3b8" text-anchor="middle">50% coin-flip</text>
  <text x="664" y="452" font-family="Inter, sans-serif" font-size="10.5" font-weight="600" fill="(79, 157, 255)" text-anchor="end">PLA wins (100%)</text>
  <text x="362.0" y="470" font-family="Inter, sans-serif" font-size="10" font-weight="400" fill="#64748b" text-anchor="middle">20 seeds/cell · 98 cells · undecided (30-turn cap) counts as non-PLA-win · commit 0d2a57a</text>
</svg>
